<?xml version="1.0" encoding="utf-8"?>
<!-- Svg Vector Icons : http://www.onlinewebfonts.com/icon -->
<!DOCTYPE svg PUBLIC "-//W3C//DTD SVG 1.1//EN" "http://www.w3.org/Graphics/SVG/1.1/DTD/svg11.dtd">
<svg version="1.1" xmlns="http://www.w3.org/2000/svg" xmlns:xlink="http://www.w3.org/1999/xlink" x="0px" y="0px" viewBox="0 0 1000 1000" enable-background="new 0 0 1000 1000" xml:space="preserve">
<metadata> Svg Vector Icons : http://www.onlinewebfonts.com/icon </metadata>
<g><g transform="translate(0.000000,511.000000) scale(0.100000,-0.100000)"><path d="M1194.2,5064.8c-122.9-76.5-1073.9-1053-1090.1-1117.9c-9.3-39.4-2.3-88.1,18.5-127.6c20.9-37.1,273.7-303.8,565.9-593.8c517.2-514.9,533.5-528.8,626.2-528.8c153.1,0,266.7,141.5,229.6,287.6c-7,32.5-150.8,197.1-317.8,371.1l-303.8,313.1l974.2,7l974.2,7l60.3,55.7c78.9,74.2,97.4,185.6,48.7,280.7c-69.6,134.5-97.4,139.2-1118,139.2H939l283,285.3c153.1,155.4,292.2,306.2,306.2,334c46.4,90.4,30.2,169.3-53.3,252.8C1384.3,5120.4,1300.8,5132,1194.2,5064.8z"/><path d="M4782.3,5048.5c-167-44.1-248.2-90.4-378.1-211.1c-76.5-71.9-127.6-146.1-160-229.6c-44.1-122.9-46.4-174-46.4-1830V1073.1h-248.2c-559,0-886-120.6-1099.4-403.6c-450-593.8-542.7-1651.4-243.5-2781c380.4-1445,1187.5-2509.6,2064.3-2730c174-44.1,262.1-46.4,1739.6-46.4c1305.8,0,1579.5,7,1704.8,34.8c461.5,109,888.3,521.9,1199.1,1159.7c385,790.9,617,1994.7,582.2,3026.8C9871,101.2,9734.2,597.6,9467.5,892.2c-106.7,118.3-199.5,164.7-505.6,250.5c-315.5,88.1-1621.3,380.4-2421.5,540.4L5925.7,1806l-11.6,1368.4c-13.9,1526.2-4.6,1445-183.2,1639.8C5519.8,5043.9,5125.5,5141.3,4782.3,5048.5z M5292.5,4561.5c32.5-18.6,83.5-60.3,109-92.8c48.7-60.3,48.7-76.5,48.7-1491.4c0-1370.8,2.3-1431.1,44.1-1503c25.5-39.4,65-78.9,88.2-85.8c23.2-7,334-69.6,691.2-141.5c1565.6-313.1,2755.4-596.1,2841.3-672.6c67.3-60.3,174-294.6,218-475.5c241.2-990.4,34.8-2623.3-454.6-3606.7c-197.1-394.3-461.6-707.4-695.8-821.1c-192.5-92.8-301.5-97.4-1867.1-90.4l-1503,7l-134.5,53.3c-853.5,345.6-1609.7,1714-1758.1,3182.2c-78.9,802.5,136.8,1528.5,505.6,1695.5c127.6,58,443,97.4,626.2,76.5l146.1-13.9v-167c0-174,30.2-236.6,132.2-289.9c90.5-46.4,169.3-30.2,252.8,53.3l78.9,78.9v2075.9c0,2064.3,0,2073.6,48.7,2136.2c25.5,32.5,69.6,71.9,97.4,88.1C4930.7,4624.1,5165,4626.4,5292.5,4561.5z"/></g></g>
</svg>